<svg xmlns="http://www.w3.org/2000/svg" xmlns:xlink="http://www.w3.org/1999/xlink" width="500" zoomAndPan="magnify" viewBox="0 0 375 374.999991" height="500" preserveAspectRatio="xMidYMid meet" version="1.0"><defs><g/></defs><g fill="#53dd84" fill-opacity="1"><g transform="translate(37.500002, 320.964659)"><g><path d="M 6.496094 -267.996094 L 6.496094 -259.875 L 14.617188 -259.875 C 38.980469 -259.875 43.042969 -243.632812 43.042969 -219.269531 L 43.042969 0 L 183.132812 0 C 199.375 0 209.121094 -7.714844 213.585938 -20.304688 L 227.796875 -58.878906 L 219.675781 -60.910156 C 207.089844 -28.425781 187.597656 -16.242188 150.648438 -16.242188 L 79.585938 -16.242188 L 79.585938 -129.9375 L 189.222656 -129.9375 L 189.222656 -146.179688 L 79.585938 -146.179688 L 79.585938 -251.753906 L 155.113281 -251.753906 C 187.597656 -251.753906 205.871094 -237.542969 205.871094 -205.058594 L 213.992188 -205.058594 L 213.992188 -235.511719 C 213.992188 -251.753906 207.496094 -267.996094 179.476562 -267.996094 Z M 6.496094 -267.996094 "/></g></g></g><g fill="#53dd84" fill-opacity="1"><g transform="translate(252.885045, 317.296978)"><g><path d="M 13.117188 -11.328125 C 9.660156 -11.328125 6.679688 -8.347656 6.679688 -4.890625 C 6.679688 -1.191406 9.660156 1.667969 13.117188 1.667969 C 16.578125 1.667969 19.558594 -1.191406 19.558594 -4.890625 C 19.558594 -8.347656 16.816406 -11.328125 13.117188 -11.328125 Z M 13.117188 -11.328125 "/></g></g></g><g fill="#53dd84" fill-opacity="1"><g transform="translate(277.514372, 123.772099)"><g><path d="M 10.851562 -14.3125 C 10.851562 -3.457031 16.695312 1.191406 25.164062 1.191406 C 33.511719 1.191406 37.566406 -1.667969 40.070312 -3.578125 L 38.878906 -5.964844 C 36.492188 -4.652344 34.109375 -3.578125 29.933594 -3.578125 C 24.328125 -3.578125 21.585938 -7.15625 21.585938 -14.3125 L 21.585938 -51.28125 L 35.898438 -51.28125 L 35.898438 -56.050781 L 21.585938 -56.050781 L 21.585938 -73.941406 L 16.816406 -73.941406 L 10.851562 -66.785156 L 10.851562 -56.050781 L 2.503906 -56.050781 L 2.503906 -51.28125 L 10.851562 -51.28125 Z M 10.851562 -14.3125 "/></g></g></g><g fill="#53dd84" fill-opacity="1"><g transform="translate(268.570564, 211.037784)"><g><path d="M 46.511719 -28.027344 C 46.511719 -14.3125 40.546875 -3.578125 31.601562 -3.578125 C 22.660156 -3.578125 16.695312 -14.3125 16.695312 -28.027344 C 16.695312 -41.742188 22.660156 -52.472656 31.601562 -52.472656 C 40.546875 -52.472656 46.511719 -41.742188 46.511719 -28.027344 Z M 5.367188 -28.027344 C 5.367188 -11.925781 14.90625 1.191406 31.601562 1.191406 C 48.300781 1.191406 57.839844 -11.925781 57.839844 -28.027344 C 57.839844 -44.125 48.300781 -57.242188 31.601562 -57.242188 C 14.90625 -57.242188 5.367188 -44.125 5.367188 -28.027344 Z M 5.367188 -28.027344 "/></g></g></g><g fill="#53dd84" fill-opacity="1"><g transform="translate(268.570564, 298.303469)"><g><path d="M 21.109375 -45.316406 C 23.375 -48.894531 27.070312 -52.472656 33.628906 -52.472656 C 43.171875 -52.472656 47.34375 -41.742188 47.34375 -28.027344 C 47.34375 -14.3125 43.171875 -3.578125 32.4375 -3.578125 C 28.742188 -3.578125 24.804688 -5.367188 21.109375 -7.15625 Z M 10.375 22.660156 L 21.109375 22.660156 L 21.109375 -2.386719 C 24.804688 -0.597656 29.335938 1.191406 36.015625 1.191406 C 51.519531 1.191406 58.675781 -11.925781 58.675781 -28.027344 C 58.675781 -44.125 51.398438 -57.242188 37.207031 -57.242188 C 28.265625 -57.242188 23.492188 -53.667969 21.109375 -50.683594 L 20.511719 -50.683594 C 19.199219 -54.382812 16.457031 -56.050781 10.375 -56.050781 L -0.359375 -56.050781 L -0.359375 -53.667969 L 2.027344 -53.667969 C 9.183594 -53.667969 10.375 -48.894531 10.375 -41.742188 Z M 10.375 22.660156 "/></g></g></g></svg>